<?xml version="1.0" encoding="utf-8"?>
<!-- Generator: Adobe Illustrator 16.0.0, SVG Export Plug-In . SVG Version: 6.00 Build 0)  -->
<!DOCTYPE svg PUBLIC "-//W3C//DTD SVG 1.1//EN" "http://www.w3.org/Graphics/SVG/1.1/DTD/svg11.dtd">
<svg version="1.1" id="Layer_1" xmlns="http://www.w3.org/2000/svg" xmlns:xlink="http://www.w3.org/1999/xlink" x="0px" y="0px"
	 width="56px" height="56px" viewBox="0 0 56 56" enable-background="new 0 0 56 56" xml:space="preserve">
<g>
	<path d="M43.358,27.798c-0.387-0.305-0.844-0.513-1.328-0.611c0.033-0.058,0.063-0.116,0.092-0.176l0.303-0.303
		c1.166-1.164,1.287-2.998,0.283-4.265c-0.473-0.599-1.131-0.996-1.859-1.145c0.053-0.096,0.098-0.193,0.141-0.293
		c0.793-1.149,0.779-2.694-0.1-3.804c-0.473-0.598-1.131-0.997-1.859-1.145c0.602-1.108,0.525-2.49-0.279-3.508
		c-0.609-0.769-1.521-1.21-2.504-1.21c-0.785,0-1.525,0.281-2.108,0.795c-0.089-0.5-0.298-0.982-0.63-1.403
		c-0.609-0.769-1.521-1.21-2.502-1.21l0,0c-0.853,0-1.653,0.331-2.254,0.932l-7.642,7.642l-0.028-1.02
		c-0.014-1.737-1.431-3.146-3.171-3.146c-1.709,0-3.106,1.359-3.169,3.052L13.217,28.07l-1.253,1.458
		c-0.752,0.872-0.701,2.195,0.114,3.01l1.864,1.859c-0.574,0.865-0.474,2.043,0.277,2.793l8.75,8.736
		c0.419,0.417,0.974,0.646,1.563,0.646c0.485,0,0.963-0.163,1.348-0.458l1.827-1.402c1.756-0.415,3.695-1.359,5.762-2.805
		c1.806-1.264,3.764-2.946,5.818-5.003l4.352-4.35c0.641-0.642,0.979-1.531,0.926-2.441C44.513,29.208,44.071,28.363,43.358,27.798z
		 M35.06,13.336c0.326-0.327,0.758-0.49,1.188-0.49c0.492,0,0.984,0.212,1.32,0.639c0.535,0.675,0.441,1.655-0.168,2.264
		l-0.773,0.775c-0.121,0.081-0.238,0.166-0.348,0.263c-0.087-0.5-0.297-0.982-0.629-1.403c-0.408-0.517-0.955-0.885-1.566-1.071
		L35.06,13.336z M29.818,11.518c0.327-0.326,0.757-0.49,1.188-0.49c0.492,0,0.982,0.212,1.322,0.639
		c0.533,0.675,0.439,1.655-0.171,2.263l-8.906,8.816l-0.029-1.02c-0.007-0.983-0.464-1.86-1.175-2.438L29.818,11.518z M13.142,31.47
		c-0.262-0.26-0.277-0.68-0.037-0.959l1.543-1.793c0-0.003,0.001-0.003,0.001-0.004l1.598-11.615c0-0.915,0.749-1.664,1.664-1.664
		c0.915,0,1.664,0.749,1.664,1.664l0.043,1.512c-1.506,0.207-2.678,1.474-2.735,3.021l-1.526,11.09l-0.443,0.518L13.142,31.47z
		 M42.571,31.489l-4.35,4.35c-3.715,3.715-7.598,6.696-11.008,7.44c-0.104,0.023-0.202,0.065-0.286,0.13l-1.966,1.51
		c-0.127,0.099-0.279,0.146-0.429,0.146c-0.182,0-0.363-0.068-0.499-0.206l-8.75-8.736c-0.262-0.261-0.277-0.679-0.036-0.96
		l1.542-1.794c0,0,0.001-0.001,0.001-0.003l1.597-11.614c0-0.916,0.749-1.665,1.664-1.665s1.664,0.749,1.664,1.665l0.079,2.74
		c0.013,0.455,0.388,0.753,0.777,0.753c0.19,0,0.384-0.071,0.541-0.229l8.845-8.845c0.328-0.327,0.758-0.491,1.189-0.491
		c0.492,0,0.983,0.213,1.32,0.639c0.535,0.675,0.441,1.656-0.168,2.265l-6.094,6.093c-0.316,0.316-0.316,0.829,0,1.146l0,0
		c0.16,0.159,0.371,0.24,0.58,0.24c0.21,0,0.419-0.081,0.58-0.24l7.834-7.834c0.326-0.327,0.758-0.491,1.188-0.491
		c0.492,0.001,0.984,0.213,1.322,0.64c0.535,0.675,0.439,1.655-0.168,2.264l-7.799,7.797c-0.32,0.319-0.32,0.84,0,1.161
		c0.158,0.158,0.365,0.237,0.572,0.237s0.414-0.079,0.572-0.237l6.129-6.131c0.328-0.326,0.76-0.49,1.191-0.49
		c0.49,0,0.982,0.213,1.318,0.64c0.537,0.675,0.441,1.655-0.168,2.264l-6.072,6.073c-0.327,0.327-0.327,0.859,0,1.188l0.012,0.009
		c0.15,0.151,0.349,0.227,0.547,0.227c0.199,0,0.397-0.075,0.549-0.227l3.766-3.765c0.338-0.339,0.793-0.518,1.246-0.518
		c0.359,0,0.721,0.111,1.018,0.349C43.222,29.612,43.272,30.788,42.571,31.489z"/>
</g>
</svg>
