<?xml version="1.0" encoding="utf-8"?>
<!-- Generator: Adobe Illustrator 16.0.0, SVG Export Plug-In . SVG Version: 6.00 Build 0)  -->
<!DOCTYPE svg PUBLIC "-//W3C//DTD SVG 1.1//EN" "http://www.w3.org/Graphics/SVG/1.1/DTD/svg11.dtd">
<svg version="1.1" id="Layer_2" xmlns="http://www.w3.org/2000/svg" xmlns:xlink="http://www.w3.org/1999/xlink" x="0px" y="0px"
	 width="56px" height="56px" viewBox="0 0 56 56" enable-background="new 0 0 56 56" xml:space="preserve">
<g>
	<g>
		<path d="M11.763,22.98c0.613-0.034,1.197,0.408,1.726,0.646c1.698,0.767,3.265-0.026,4.196-1.542
			c0.936-1.521,2.016-3.499,4.009-3.714c1.857-0.201,3.294,1.372,4.869,1.926c-0.008-0.034-0.015-0.066-0.023-0.099
			c-1.513-5.879-5.815-9.989-10.096-9.989c-0.548,0-1.095,0.067-1.636,0.207c-4.743,1.222-7.222,7.522-5.576,14.109
			C9.887,23.706,10.681,23.038,11.763,22.98z"/>
		<path d="M23.782,20.912c-2.901-1.752-4.104,2.321-5.733,3.934c-0.966,0.957-2.764,1.312-4.064,1.048
			c-0.673-0.137-1.245-0.373-1.854-0.684c-0.86-0.438-1.614,0.846-2.109,1.707c1.568,3.795,4.338,6.547,7.325,7.419
			c1.093,0.682,2.981,3.371,2.957,6.141c-0.036,3.988,2.125,8.064,4.145,8.064c0.058,0,0.116-0.004,0.175-0.011l0.006,0.026
			c0.032-0.009,0.06-0.026,0.091-0.037c0.031-0.006,0.064-0.003,0.097-0.01l-0.007-0.026c1.125-0.456,1.582-2.271,1.372-4.412
			c-0.601,0.342-1.201,0.538-1.763,0.538c-0.1,0-0.198-0.006-0.293-0.018l-0.101,0.171l-0.583-0.344
			c-0.028-0.019-0.055-0.035-0.08-0.054c-0.029-0.015-0.058-0.028-0.086-0.044l-0.571-0.368l0.088-0.148
			c-0.314-0.436-0.499-1.009-0.535-1.687c-0.083-1.526,0.562-3.458,1.638-5.212c-0.315-2.181,0.303-4.245,0.765-4.9
			c0.083-0.101,0.16-0.208,0.237-0.313c0.046-0.055,0.078-0.09,0.078-0.09l-0.019,0.006c1.06-1.457,1.755-3.347,2.01-5.454
			c-0.236-1.158-0.298-2.395-0.181-3.669C25.774,22.264,24.932,21.606,23.782,20.912z"/>
		<path d="M28.522,28.533c0.292,1.254-0.273,4.491-2.25,6.432c-0.639,0.627-1.197,1.338-1.671,2.075
			c-0.089,0.14-0.177,0.278-0.261,0.418c-0.083,0.141-0.161,0.284-0.238,0.425c-1.297,2.415-1.615,4.93-0.471,5.832l-0.014,0.023
			c0.029,0.017,0.06,0.022,0.089,0.037c0.027,0.019,0.048,0.043,0.077,0.06l0.014-0.023c0.192,0.082,0.4,0.121,0.619,0.121
			c0.512,0,1.084-0.218,1.667-0.596c0.102-0.066,0.203-0.135,0.306-0.212c0.098-0.073,0.195-0.153,0.293-0.236
			c1.447-1.203,2.857-3.312,3.5-5.615c0.886-3.173,4.073-5.033,5.16-5.22c0.13-0.014,0.26-0.034,0.391-0.054
			c0.07-0.006,0.117-0.009,0.117-0.009l-0.017-0.009c2.76-0.434,5.635-2.214,7.852-5.006c-0.647-0.901-0.776-2.007-1.118-3.387
			c-0.812-3.291-4.542-1.261-6.835-1.272c-1.361-0.006-2.883-1.027-3.616-2.134c-0.379-0.571-0.616-1.143-0.828-1.793
			c-0.298-0.919-1.738-0.543-2.697-0.285c-0.328,0.789-0.587,1.579-0.777,2.365c-0.109,0.448-0.199,0.894-0.265,1.335
			c-0.036,0.254-0.065,0.507-0.089,0.757c-0.113,1.248-0.046,2.448,0.189,3.555C27.837,26.989,28.125,27.804,28.522,28.533z"/>
		<path d="M32.606,16.552c0.457,0.41,0.559,1.136,0.764,1.678c0.658,1.742,2.326,2.289,4.058,1.877
			c1.736-0.415,3.898-1.048,5.46,0.209c1.455,1.17,1.36,3.3,2.08,4.802c0.019-0.028,0.037-0.057,0.054-0.085
			c3.482-5.896,2.864-12.708-1.378-15.214c-1.065-0.627-2.258-0.927-3.501-0.927c-3.682,0-7.81,2.61-10.42,6.962
			C30.767,15.738,31.799,15.828,32.606,16.552z"/>
	</g>
</g>
</svg>
